<svg xmlns="http://www.w3.org/2000/svg" viewBox="0 0 512 512">
  <rect width="512" height="512" rx="112" fill="#1a1a24"/>
  <!-- 항목 1 -->
  <rect x="96" y="142" width="56" height="56" rx="14" fill="#fb923c"/>
  <path d="M110 170 l14 16 l28 -28" fill="none" stroke="#1a1a24" stroke-width="10" stroke-linecap="round" stroke-linejoin="round"/>
  <rect x="174" y="158" width="242" height="24" rx="12" fill="#6b7280"/>
  <!-- 항목 2 -->
  <rect x="96" y="228" width="56" height="56" rx="14" fill="#fb923c"/>
  <path d="M110 256 l14 16 l28 -28" fill="none" stroke="#1a1a24" stroke-width="10" stroke-linecap="round" stroke-linejoin="round"/>
  <rect x="174" y="244" width="200" height="24" rx="12" fill="#6b7280"/>
  <!-- 항목 3 -->
  <rect x="96" y="314" width="56" height="56" rx="14" fill="#fb923c"/>
  <path d="M110 342 l14 16 l28 -28" fill="none" stroke="#1a1a24" stroke-width="10" stroke-linecap="round" stroke-linejoin="round"/>
  <rect x="174" y="330" width="224" height="24" rx="12" fill="#6b7280"/>
  <!-- 항목 4 -->
  <rect x="96" y="400" width="56" height="56" rx="14" fill="#fb923c"/>
  <path d="M110 428 l14 16 l28 -28" fill="none" stroke="#1a1a24" stroke-width="10" stroke-linecap="round" stroke-linejoin="round"/>
  <rect x="174" y="416" width="180" height="24" rx="12" fill="#6b7280"/>
</svg>
